<?xml version="1.0" encoding="utf-8"?>
<!-- Generator: Adobe Illustrator 19.2.0, SVG Export Plug-In . SVG Version: 6.00 Build 0)  -->
<svg witdh="18" height="18" version="1.1" id="Layer_1" xmlns="http://www.w3.org/2000/svg" xmlns:xlink="http://www.w3.org/1999/xlink" x="0px" y="0px"
	 viewBox="0 0 30 30" style="enable-background:new 0 0 30 30;" xml:space="preserve">
<style type="text/css">
	.st0{fill:#002158;}
</style>
<g>
	<path class="st0" d="M28,7.5c-1.3-2.3-3.2-4.1-5.5-5.5c-2.3-1.3-4.8-2-7.5-2c-2.7,0-5.2,0.7-7.5,2C5.2,3.4,3.4,5.2,2,7.5
		C0.7,9.8,0,12.3,0,15c0,2.7,0.7,5.2,2,7.5c1.3,2.3,3.2,4.1,5.5,5.5c2.3,1.3,4.8,2,7.5,2c2.7,0,5.2-0.7,7.5-2
		c2.3-1.3,4.1-3.2,5.5-5.5c1.3-2.3,2-4.8,2-7.5C30,12.3,29.3,9.8,28,7.5L28,7.5z M22.1,18.5c0.2,0.2,0.4,0.5,0.4,0.9
		c0,0.4-0.1,0.7-0.4,0.9l-1.8,1.8c-0.2,0.2-0.5,0.4-0.9,0.4c-0.3,0-0.6-0.1-0.9-0.4L15,18.5l-3.5,3.5c-0.2,0.2-0.5,0.4-0.9,0.4
		c-0.4,0-0.7-0.1-0.9-0.4l-1.8-1.8c-0.2-0.2-0.4-0.5-0.4-0.9c0-0.3,0.1-0.6,0.4-0.9l3.5-3.5l-3.5-3.5c-0.2-0.2-0.4-0.5-0.4-0.9
		c0-0.4,0.1-0.7,0.4-0.9l1.8-1.8c0.2-0.2,0.5-0.4,0.9-0.4c0.3,0,0.6,0.1,0.9,0.4l3.5,3.5l3.5-3.5c0.2-0.2,0.5-0.4,0.9-0.4
		c0.4,0,0.7,0.1,0.9,0.4l1.8,1.8c0.2,0.2,0.4,0.5,0.4,0.9c0,0.3-0.1,0.6-0.4,0.9L18.5,15L22.1,18.5z M22.1,18.5"/>
</g>
</svg>
