<?xml version="1.0" encoding="utf-8"?>
<!-- Generator: Adobe Illustrator 19.2.0, SVG Export Plug-In . SVG Version: 6.00 Build 0)  -->
<svg width="80" height="80" version="1.1" id="Layer_1" xmlns="http://www.w3.org/2000/svg" xmlns:xlink="http://www.w3.org/1999/xlink" x="0px" y="0px"
	 viewBox="0 3 32 32" style="enable-background:new 0 0 32 32;" xml:space="preserve">
<style type="text/css">
	.st0{fill:none;}
</style>
<g>
	<path d="M25,18h-1.2c-0.2,0-0.3,0.1-0.4,0.2c-0.1,0.1-0.2,0.2-0.2,0.4v5.8c0,0.8-0.3,1.5-0.9,2.1c-0.6,0.6-1.3,0.9-2.1,0.9H5.2
		c-0.8,0-1.5-0.3-2.1-0.9c-0.6-0.6-0.9-1.3-0.9-2.1V9.3c0-0.8,0.3-1.5,0.9-2.1c0.6-0.6,1.3-0.9,2.1-0.9H18c0.2,0,0.3-0.1,0.4-0.2
		c0.1-0.1,0.2-0.2,0.2-0.4V4.7c0-0.2-0.1-0.3-0.2-0.4c-0.1-0.1-0.2-0.2-0.4-0.2H5.2c-1.4,0-2.7,0.5-3.7,1.5C0.5,6.6,0,7.9,0,9.3
		v15.1c0,1.4,0.5,2.7,1.5,3.7c1,1,2.3,1.5,3.7,1.5h15.1c1.4,0,2.7-0.5,3.7-1.5c1-1,1.5-2.3,1.5-3.7v-5.8c0-0.2-0.1-0.3-0.2-0.4
		C25.3,18.1,25.2,18,25,18L25,18z M25,18" fill="#0b55a8"/>
	<path class="st0" d="M25.7,7C25.7,7,25.6,7,25.7,7L13.2,19.4c-0.5,0.5-0.5,1.2,0,1.7c0.5,0.5,1.3,0.5,1.7,0L27.3,8.7
		c0,0,0-0.2-0.1-0.4c-0.1-0.2-0.3-0.5-0.6-0.8C26.5,7.4,26.2,7.2,26,7C25.9,7,25.8,7,25.7,7z" fill="#0b55a8"/>
	<path d="M25.4,6.8L13.2,19.1c-0.6,0.6-0.6,1.5,0,2.1c0.3,0.3,0.7,0.4,1,0.4c0.4,0,0.8-0.1,1-0.4L27.5,8.9L25.4,6.8z" fill="#0b55a8"/>
	<g>
		<path d="M22.1,2.3c-0.2,0-0.3,0.1-0.4,0.2c-0.1,0.1-0.2,0.2-0.2,0.4c0,0.2,0.1,0.3,0.2,0.4l9.3,9.3c0.2,0.2,0.6,0.2,0.8,0
			c0.1-0.1,0.2-0.2,0.2-0.4V2.9c0-0.2-0.1-0.3-0.2-0.4c-0.1-0.1-0.2-0.2-0.4-0.2H22.1z" fill="#0b55a8"/>
	</g>
</g>
</svg>
