<svg width="24" height="24" viewBox="0 0 24 24" fill="none" xmlns="http://www.w3.org/2000/svg">
<rect width="24" height="24"/>
<path d="M15.2951 2.72339H4C3.44772 2.72339 3 3.1711 3 3.72339V20.7907C3 21.6507 4.0137 22.1096 4.65989 21.5421L8.52017 18.1517C8.70265 17.9914 8.93721 17.9031 9.18007 17.9031H20C20.5523 17.9031 21 17.4553 21 16.9031V9.70382" stroke="#000000" stroke-linecap="round"/>
<path d="M12.8833 6.70483H5.2251" stroke="#000000" stroke-linecap="round"/>
<path d="M12.3596 9.58057H5.2251" stroke="#000000" stroke-linecap="round"/>
<path d="M10.6578 12.3821H5.2251" stroke="#000000" stroke-linecap="round"/>
<path d="M18.171 4.76855L19.3946 5.80978L14.7608 11.255L13.502 11.375L13.5218 10.2318L18.171 4.76855Z" stroke="#000000"/>
<path d="M19.1134 3.49374L19.7848 2.70483L21.1738 3.88683L20.5024 4.67574L19.1134 3.49374Z" stroke="#000000"/>
</svg>
